<svg id="border2" data-name="border2" xmlns="http://www.w3.org/2000/svg" viewBox="0 0 680 478">
<style type="text/css">
#border2 path{fill:#1e3a09}
</style><path d="M18.62,29.4C11.37,91,10.45,300.28,7.33,391.39c-.15,7.17-.29,14-.43,20.45s-.29,12.37-.43,17.94c-.29,9.47-.59,17.85-.91,24.76,6.28.15,9.6.3,12.75.45,3.87.19,4.36.26,2,.24s-7.69-.15-15-.38c.47-14.47,1.2-36.8,2.08-63.46.45-26.7,1-58.22,1.6-95.29C5.82,342.28,2.74,386.65.21,418.44.09,432.2,0,446-.14,460.24l32.82.35c105.56,1.15,207.69,1.34,312.13,3.26,37.88.76,120.52.95,157.23,2.49L41.83,464c4.16.15,8.31.33,12.39.54l241.93,3.32c13.7.05,27.54.2,41.78.58l-41.78-.58c-35.83-.1-70.65.64-109.68.79-24.09-.19-51.63-1.35-75.75-1.54-19.69-.27-37.79-1.62-56.5-2.57l-38.66-.5c-4.25.13-8.84.25-13.52.29a4.38,4.38,0,0,1,.51.09c3.87.77,13.19,1.58,27.67,2.4l9.29.63,10.18.62c7.13.42,15,.83,23.33,1.25,33.5,1.66,75.89,3.29,118.92,4.68,86.07,2.79,174.71,4.67,199.93,4.09,40.21-.78,76.88-5.8,121.63-6.39,15-.19,27.57,1.16,39,0,1.13-.77,6.86-1.35,12.62-1.93,14.9-.2,29.81.43,43.86.81q5.28.15,10.37.23l5,0h5c9.22-.06,18-.32,25.57-.9a139.29,139.29,0,0,1,15.86.62c.61-6.37,1.57-13.71,2.65-21.81.55-4.19,1.11-8.41,1.66-12.56.28-2.18.56-4.35.84-6.48l.1-.81c0-.29.07-.37.1-.57l.21-1c.13-.68.26-1.34.4-2,2.09-10.51,3.65-18.9,2.7-20.31-8.5-12.57-2.32-3.43-1.55-41.32.19-4.58-3.29-19.49-2.91-28.67,2.13-31-.77-40.16-1.74-75.72-2.71-52.77,2.7-64.31-2.71-111.32-.58-5.71-4.06-79.14-4.06-79.14q0-5.48.09-10.7,0-6.52,0-12.77c0-8.32-.11-16.23-.21-23.78l-32.79.47-13.14.14q-6,0-12,0A387.17,387.17,0,0,1,560.47,19c-51.62,5.22-120.49-1-175.55,0s-78.06-3.29-126.27-6.95c-13.76-.58-24.09-.19-32.11-1.35s-27.54,2.13-41.3,1.55L188.66,10l-18.37-.76c-4.6-.2-3.44-1-2.29-1.75,2.29-1.54,4.57-3.09-3.47-4.25q-28.77-2-58.89-3Q75.88,1.91,46.91,4.1a11.85,11.85,0,0,1-5.13,3L24.57,8.83c-3.44,2.31-2.28,4.83-4.59,6.38,0,6.56-24,12.93-18.28,18.92,2.3,1.74,35.58,2.31,50.5,5.41,3.46,1-4.58,3.08-8,5.4,19.51,0,20.64,2.51,12.63,4.63L66,50l-4.58,3.09c49.36,2.89,104.46,8.49,152.64,5.58,10.33-.38,27.53-2.12,39-3.28,5.72-.58,18.35.77,22.95,1,8-2.13,6.88-4.64,10.3-7,35.6,2.32,112.49,6.36,110.17-1.94,28.67.38,34.42-3.48,64.25-3.87,39.51-.66,89.65-1.13,139.08-1.45l14.92-.24,14.59-.13c5.72-.06,11.44-.06,17.1,0,0,4,0,8,0,11.92,0,8.47.06,16.69.09,24.52.29,70.58-.37,134.5-1,196.35-.3,30.93-.59,61.34-.88,91.8-.08,15.24-.16,30.48-.23,45.81q0,10,0,20,0,6,0,12l-22.33.27q-18.49.19-37.44.51c-25.28.44-51.22,1.08-78.08,2-85.69,2.83-173.31,4.08-258.81,4.31-42.74.11-85,0-126.13-.38l-60.92-.64L31,449.71l-20.18-.47q.17-6.33.32-12.57c.05-2,.11-4.07.16-6.09.06-2.68.11-5.34.17-8q.36-17.67.71-34.82c.53-22.86,1-45,1.54-66.27C14.84,278.93,16,239.78,17,205c2.13-69.51,4-121.43,4.49-147.85Z"/></svg>