<svg id="border" data-name="border" xmlns="http://www.w3.org/2000/svg" viewBox="0 0 680 478" class="border-scratch">
<style type="text/css">
#border path{fill:#1e3a09}
</style>
<path d="M661.08,449c7.25-61.6,8.17-270.87,11.29-362,.15-7.17.29-14,.43-20.45s.29-12.37.43-17.94c.29-9.46.59-17.84.91-24.76-6.28-.15-9.6-.29-12.75-.45-3.87-.18-4.36-.26-1.95-.24s7.69.16,15,.38C674,38,673.25,60.35,672.37,87c-.45,26.7-1,58.22-1.6,95.29C673.88,136.13,677,91.75,679.49,60c.12-13.76.23-27.6.35-41.8L647,17.81c-105.55-1.14-207.68-1.33-312.13-3.25-37.87-.77-120.51-1-157.22-2.5l460.21,2.31c-4.17-.16-8.31-.34-12.39-.55L383.55,10.5c-13.7-.05-27.54-.2-41.78-.58l41.78.58c35.83.1,70.65-.64,109.68-.79,24.09.2,51.63,1.36,75.75,1.54,19.69.27,37.79,1.63,56.5,2.57l38.66.5c4.25-.13,8.84-.25,13.52-.29a3,3,0,0,1-.51-.09c-3.87-.77-13.19-1.58-27.67-2.4l-9.29-.62L630,10.29c-7.13-.42-15-.83-23.33-1.25-33.5-1.66-75.89-3.29-118.92-4.68C401.69,1.57,313.05-.31,287.83.27,247.62,1.05,211,6.07,166.2,6.66c-14.95.19-27.57-1.16-39,0C126,7.43,120.3,8,114.53,8.59c-14.89.2-29.8-.43-43.86-.81-3.51-.1-7-.18-10.36-.23l-5,0h-5c-9.22.06-18,.32-25.57.9A141.25,141.25,0,0,1,8.8,7.8c-.61,6.36-1.57,13.7-2.65,21.8C5.6,33.79,5,38,4.49,42.16c-.28,2.18-.56,4.35-.84,6.48l-.1.81c0,.29-.07.38-.1.57l-.21,1c-.13.67-.26,1.33-.4,2C.75,63.54-.81,71.93.14,73.34c8.5,12.57,2.32,3.43,1.55,41.32C1.5,119.24,5,134.15,4.6,143.34c-2.13,31,.77,40.15,1.74,75.71,2.71,52.78-2.7,64.31,2.71,111.32.58,5.71,4.06,79.14,4.06,79.14q0,5.48-.09,10.7,0,6.54,0,12.77,0,12.48.21,23.78L46,456.29l13.14-.14c4,0,8,0,12,0a387.3,387.3,0,0,1,48.1,3.21c51.62-5.22,120.49,1,175.55,0s78.06,3.28,126.27,6.94c13.76.58,24.09.19,32.11,1.35s27.54-2.13,41.3-1.55L491,468.43l18.37.76c4.6.2,3.44,1,2.29,1.75-2.29,1.54-4.57,3.09,3.47,4.25q28.77,2,58.89,3,29.76-1.74,58.73-3.93a11.89,11.89,0,0,1,5.13-3l17.21-1.74c3.44-2.31,2.28-4.83,4.59-6.38,0-6.56,24-12.93,18.28-18.92-2.3-1.74-35.58-2.31-50.5-5.4-3.46-1,4.58-3.09,8-5.41-19.51,0-20.64-2.51-12.63-4.63l-9.17-.39,4.58-3.09c-49.36-2.89-104.46-8.48-152.64-5.58-10.33.38-27.53,2.12-39,3.29-5.72.57-18.35-.78-22.95-1-8,2.12-6.88,4.63-10.3,7-35.6-2.31-112.49-6.36-110.17,1.95-28.67-.39-34.42,3.47-64.25,3.86-39.51.66-89.65,1.13-139.08,1.45L65,436.54l-14.59.13c-5.72.06-11.44.06-17.1.05,0-4,0-7.94,0-11.92,0-8.47-.06-16.69-.09-24.52-.29-70.58.37-134.5,1-196.35.3-30.93.59-61.34.88-91.8q.12-22.84.23-45.81,0-10,0-20c0-4,0-8,0-12L57.64,34q18.49-.18,37.44-.51c25.28-.44,51.22-1.07,78.08-2,85.69-2.83,173.31-4.08,258.81-4.3,42.74-.12,85,0,126.13.37l60.92.64,29.64.42,20.18.46q-.17,6.33-.32,12.58c0,2-.11,4.06-.16,6.08-.06,2.68-.11,5.34-.17,8q-.36,17.67-.71,34.82c-.53,22.86-1.05,45-1.54,66.27-1.08,42.56-2.21,81.71-3.28,116.47-2.13,69.51-4,121.43-4.49,147.86Z"/></svg>